<mxfile host="app.diagrams.net" agent="Mozilla/5.0 (Windows NT 10.0; Win64; x64) AppleWebKit/537.36 (KHTML, like Gecko) Chrome/128.0.0.0 Safari/537.36" version="24.7.12">
  <diagram name="Pagina-1" id="y0HrhLQ2pEvVetHJkKMp">
    <mxGraphModel dx="989" dy="514" grid="1" gridSize="10" guides="1" tooltips="1" connect="1" arrows="1" fold="1" page="1" pageScale="1" pageWidth="827" pageHeight="1169" math="0" shadow="0">
      <root>
        <mxCell id="0" />
        <mxCell id="1" parent="0" />
        <mxCell id="rlAfkRkF3ex-MCZ8_QVs-6" value="Utente" style="shape=umlActor;verticalLabelPosition=bottom;verticalAlign=top;html=1;outlineConnect=0;" parent="1" vertex="1">
          <mxGeometry x="100" y="220" width="30" height="60" as="geometry" />
        </mxCell>
        <mxCell id="rlAfkRkF3ex-MCZ8_QVs-7" value="Esegue login" style="ellipse;whiteSpace=wrap;html=1;" parent="1" vertex="1">
          <mxGeometry x="200" y="265" width="80" height="50" as="geometry" />
        </mxCell>
        <mxCell id="rlAfkRkF3ex-MCZ8_QVs-9" value="Ricerca e filtri" style="ellipse;whiteSpace=wrap;html=1;" parent="1" vertex="1">
          <mxGeometry x="413" y="190" width="80" height="50" as="geometry" />
        </mxCell>
        <mxCell id="rlAfkRkF3ex-MCZ8_QVs-10" value="Controllo di accesso" style="ellipse;whiteSpace=wrap;html=1;" parent="1" vertex="1">
          <mxGeometry x="413" y="250" width="80" height="50" as="geometry" />
        </mxCell>
        <mxCell id="rlAfkRkF3ex-MCZ8_QVs-11" value="Accesso allo storico" style="ellipse;whiteSpace=wrap;html=1;" parent="1" vertex="1">
          <mxGeometry x="413" y="310" width="80" height="50" as="geometry" />
        </mxCell>
        <mxCell id="rlAfkRkF3ex-MCZ8_QVs-12" value="&lt;font style=&quot;font-size: 8px;&quot;&gt;Accesso all&#39;analisi delle conversazioni&lt;/font&gt;" style="ellipse;whiteSpace=wrap;html=1;" parent="1" vertex="1">
          <mxGeometry x="413" y="370" width="80" height="50" as="geometry" />
        </mxCell>
        <mxCell id="rlAfkRkF3ex-MCZ8_QVs-13" value="Esportare chat" style="ellipse;whiteSpace=wrap;html=1;" parent="1" vertex="1">
          <mxGeometry x="613" y="310" width="80" height="50" as="geometry" />
        </mxCell>
        <mxCell id="rlAfkRkF3ex-MCZ8_QVs-16" value="" style="endArrow=classic;html=1;rounded=0;entryX=1;entryY=0.5;entryDx=0;entryDy=0;exitX=0;exitY=0.5;exitDx=0;exitDy=0;dashed=1;" parent="1" source="rlAfkRkF3ex-MCZ8_QVs-13" target="rlAfkRkF3ex-MCZ8_QVs-11" edge="1">
          <mxGeometry width="50" height="50" relative="1" as="geometry">
            <mxPoint x="553" y="420" as="sourcePoint" />
            <mxPoint x="603" y="370" as="targetPoint" />
          </mxGeometry>
        </mxCell>
        <mxCell id="rlAfkRkF3ex-MCZ8_QVs-18" value="&amp;lt;&amp;lt;extend&amp;gt;&amp;gt;" style="edgeLabel;html=1;align=center;verticalAlign=middle;resizable=0;points=[];" parent="rlAfkRkF3ex-MCZ8_QVs-16" vertex="1" connectable="0">
          <mxGeometry x="-0.1246" relative="1" as="geometry">
            <mxPoint as="offset" />
          </mxGeometry>
        </mxCell>
        <mxCell id="rlAfkRkF3ex-MCZ8_QVs-21" value="" style="endArrow=classic;html=1;rounded=0;exitX=0;exitY=0.5;exitDx=0;exitDy=0;entryX=0.984;entryY=0.352;entryDx=0;entryDy=0;dashed=1;entryPerimeter=0;" parent="1" source="rlAfkRkF3ex-MCZ8_QVs-9" target="rlAfkRkF3ex-MCZ8_QVs-7" edge="1">
          <mxGeometry width="50" height="50" relative="1" as="geometry">
            <mxPoint x="196" y="250" as="sourcePoint" />
            <mxPoint x="246" y="200" as="targetPoint" />
          </mxGeometry>
        </mxCell>
        <mxCell id="rlAfkRkF3ex-MCZ8_QVs-28" value="&amp;lt;&amp;lt;include&amp;gt;&amp;gt;" style="edgeLabel;html=1;align=center;verticalAlign=middle;resizable=0;points=[];" parent="rlAfkRkF3ex-MCZ8_QVs-21" vertex="1" connectable="0">
          <mxGeometry x="-0.0185" y="-1" relative="1" as="geometry">
            <mxPoint as="offset" />
          </mxGeometry>
        </mxCell>
        <mxCell id="rlAfkRkF3ex-MCZ8_QVs-22" value="" style="endArrow=classic;html=1;rounded=0;exitX=0;exitY=0.5;exitDx=0;exitDy=0;entryX=1;entryY=0.5;entryDx=0;entryDy=0;dashed=1;" parent="1" source="rlAfkRkF3ex-MCZ8_QVs-10" target="rlAfkRkF3ex-MCZ8_QVs-7" edge="1">
          <mxGeometry width="50" height="50" relative="1" as="geometry">
            <mxPoint x="356" y="225" as="sourcePoint" />
            <mxPoint x="278" y="282" as="targetPoint" />
          </mxGeometry>
        </mxCell>
        <mxCell id="rlAfkRkF3ex-MCZ8_QVs-29" value="&amp;lt;&amp;lt;include&amp;gt;&amp;gt;" style="edgeLabel;html=1;align=center;verticalAlign=middle;resizable=0;points=[];" parent="rlAfkRkF3ex-MCZ8_QVs-22" vertex="1" connectable="0">
          <mxGeometry x="-0.0436" relative="1" as="geometry">
            <mxPoint as="offset" />
          </mxGeometry>
        </mxCell>
        <mxCell id="rlAfkRkF3ex-MCZ8_QVs-23" value="" style="endArrow=classic;html=1;rounded=0;exitX=0;exitY=0.5;exitDx=0;exitDy=0;entryX=0.955;entryY=0.719;entryDx=0;entryDy=0;dashed=1;entryPerimeter=0;" parent="1" source="rlAfkRkF3ex-MCZ8_QVs-11" target="rlAfkRkF3ex-MCZ8_QVs-7" edge="1">
          <mxGeometry width="50" height="50" relative="1" as="geometry">
            <mxPoint x="366" y="235" as="sourcePoint" />
            <mxPoint x="288" y="292" as="targetPoint" />
          </mxGeometry>
        </mxCell>
        <mxCell id="rlAfkRkF3ex-MCZ8_QVs-30" value="&amp;lt;&amp;lt;include&amp;gt;&amp;gt;" style="edgeLabel;html=1;align=center;verticalAlign=middle;resizable=0;points=[];" parent="rlAfkRkF3ex-MCZ8_QVs-23" vertex="1" connectable="0">
          <mxGeometry x="-0.0236" y="-1" relative="1" as="geometry">
            <mxPoint as="offset" />
          </mxGeometry>
        </mxCell>
        <mxCell id="rlAfkRkF3ex-MCZ8_QVs-25" value="" style="endArrow=classic;html=1;rounded=0;exitX=0;exitY=0.5;exitDx=0;exitDy=0;entryX=1;entryY=1;entryDx=0;entryDy=0;dashed=1;" parent="1" source="rlAfkRkF3ex-MCZ8_QVs-12" target="rlAfkRkF3ex-MCZ8_QVs-7" edge="1">
          <mxGeometry width="50" height="50" relative="1" as="geometry">
            <mxPoint x="376" y="245" as="sourcePoint" />
            <mxPoint x="298" y="302" as="targetPoint" />
          </mxGeometry>
        </mxCell>
        <mxCell id="rlAfkRkF3ex-MCZ8_QVs-31" value="&amp;lt;&amp;lt;include&amp;gt;&amp;gt;" style="edgeLabel;html=1;align=center;verticalAlign=middle;resizable=0;points=[];" parent="rlAfkRkF3ex-MCZ8_QVs-25" vertex="1" connectable="0">
          <mxGeometry x="0.0979" relative="1" as="geometry">
            <mxPoint as="offset" />
          </mxGeometry>
        </mxCell>
        <mxCell id="Dz9RqnHb0-KLCWfCBbqJ-2" value="Crea un account" style="ellipse;whiteSpace=wrap;html=1;" vertex="1" parent="1">
          <mxGeometry x="200" y="180" width="80" height="50" as="geometry" />
        </mxCell>
        <mxCell id="Dz9RqnHb0-KLCWfCBbqJ-3" value="" style="endArrow=none;html=1;rounded=0;entryX=0;entryY=0.5;entryDx=0;entryDy=0;" edge="1" parent="1" source="rlAfkRkF3ex-MCZ8_QVs-6" target="Dz9RqnHb0-KLCWfCBbqJ-2">
          <mxGeometry width="50" height="50" relative="1" as="geometry">
            <mxPoint x="130" y="249" as="sourcePoint" />
            <mxPoint x="210" y="230" as="targetPoint" />
          </mxGeometry>
        </mxCell>
        <mxCell id="Dz9RqnHb0-KLCWfCBbqJ-4" value="" style="endArrow=classic;html=1;rounded=0;entryX=0.5;entryY=1;entryDx=0;entryDy=0;exitX=0.5;exitY=0;exitDx=0;exitDy=0;dashed=1;" edge="1" parent="1" source="rlAfkRkF3ex-MCZ8_QVs-7" target="Dz9RqnHb0-KLCWfCBbqJ-2">
          <mxGeometry width="50" height="50" relative="1" as="geometry">
            <mxPoint x="200" y="290" as="sourcePoint" />
            <mxPoint x="250" y="240" as="targetPoint" />
          </mxGeometry>
        </mxCell>
        <mxCell id="Dz9RqnHb0-KLCWfCBbqJ-5" value="Include" style="edgeLabel;html=1;align=center;verticalAlign=middle;resizable=0;points=[];" vertex="1" connectable="0" parent="Dz9RqnHb0-KLCWfCBbqJ-4">
          <mxGeometry x="-0.0857" relative="1" as="geometry">
            <mxPoint as="offset" />
          </mxGeometry>
        </mxCell>
      </root>
    </mxGraphModel>
  </diagram>
</mxfile>
